/* XPM */
static char * close_xpm[] = {
"25 25 9 1",
" 	c None",
".	c #f2f2f2",
"+	c #eeeeee",
"@	c #B4B3B2",
"#	c #BEBEBD",
"$	c #dddddd",
"%	c #dddddd",
"&	c #fafafa",
"*	c #fcfcfc",
".........................",
"+++++++++++++++++++++++++",
"+++++++++++++++++++++++++",
"+++++++++++++++++++++++++",
"+++++++++++++++++++++++++",
"+++++++++++++++++++++++++",
"++++++++++#####++++++++++",
"+++++++++#######+++++++++",
"++++++++#########++++++++",
"++++++++#########++++++++",
"++++++++#########++++++++",
"++++++++#########++++++++",
"++++++++#########++++++++",
"+++++++++#######+++++++++",
"++++++++++#####++++++++++",
"+++++++++++++++++++++++++",
"+++++++++++++++++++++++++",
"+++++++++++++++++++++++++",
"+++++++++++++++++++++++++",
"+++++++++++++++++++++++++",
"+++++++++++++++++++++++++",
"+++++++++++++++++++++++++",
"+++++++++++++++++++++++++",
"+++++++++++++++++++++++++",
"+++++++++++++++++++++++++"};
