/* XPM */
static char * menu_xpm[] = {
"1 25 24 1",
" 	c #eeeeee",
".	c #eeeeee",
"+	c #eeeeee",
"@	c #eeeeee",
"#	c #eeeeee",
"$	c #eeeeee",
"%	c #eeeeee",
"&	c #eeeeee",
"*	c #eeeeee",
"=	c #eeeeee",
"-	c #eeeeee",
";	c #eeeeee",
">	c #eeeeee",
",	c #eeeeee",
"'	c #eeeeee",
")	c #eeeeee",
"!	c #eeeeee",
"~	c #eeeeee",
"{	c #eeeeee",
"]	c #eeeeee",
"^	c #eeeeee",
"/	c #eeeeee",
"(	c #eeeeee",
"_	c #eeeeee",
".",
"+",
"@",
"#",
"$",
"%",
"&",
"*",
"=",
"-",
";",
">",
",",
"'",
")",
"!",
"~",
"{",
"]",
"^",
"/",
"(",
"_",
"_",
"_"};
