/* XPM */
static char * window_xpm[] = {
"1 24 3 1",
" 	c None",
".	c #f4f4f4",
"+	c #eeeeee",
".",
"+",
"+",
"+",
"+",
"+",
"+",
"+",
"+",
"+",
"+",
"+",
"+",
"+",
"+",
"+",
"+",
"+",
"+",
"+",
"+",
"+",
"+",
"+"};
